<svg width="146" height="84" viewBox="0 0 146 84" fill="none" xmlns="http://www.w3.org/2000/svg">
<path d="M50.7773 35.6854C50.7773 35.6854 70.8132 18.8421 76.4286 42.4992" stroke="black" stroke-width="3" stroke-miterlimit="1.5" stroke-linecap="round" stroke-linejoin="round"/>
<path d="M67.0157 47.3379C67.0157 47.3379 71.8944 44.352 77.4922 44.5016C83.3331 44.6567 89.9558 48.2298 92.6244 62.1842C96.7138 83.5534 65.1239 86.6749 56.0782 75.2217C56.0782 75.2217 38.6833 92.6688 27.3499 71.9866C27.3499 71.9866 10.2156 91.0069 2.00428 64.0039C2.00428 64.0039 1.23503 42.0808 20.3188 51.1824" stroke="black" stroke-width="3" stroke-miterlimit="1.5" stroke-linecap="round" stroke-linejoin="round"/>
<path d="M14.3683 49.1859C14.3683 49.1859 13.7318 28.8582 34.9379 35.0432" stroke="black" stroke-width="3" stroke-miterlimit="1.5" stroke-linecap="round" stroke-linejoin="round"/>
<path d="M28.8424 33.2281C28.8424 33.2281 28.6545 20.9273 43.5536 20.991C58.4528 21.0547 57.488 30.3115 58.0543 30.3586" stroke="black" stroke-width="3" stroke-miterlimit="1.5" stroke-linecap="round" stroke-linejoin="round"/>
<path d="M101.763 16.6947C101.763 16.6947 121.799 -0.14861 127.414 23.5085" stroke="black" stroke-width="3" stroke-miterlimit="1.5" stroke-linecap="round" stroke-linejoin="round"/>
<path d="M118.028 28.3472C118.028 28.3472 122.907 25.3613 128.505 25.5109C134.345 25.666 140.968 29.2391 143.637 43.1934C147.726 64.5627 116.136 67.6842 107.091 56.231C107.091 56.231 94.7824 62.1806 86.5435 47.9963C86.5435 47.9963 82.2336 44.2488 76.751 44.39C76.751 44.39 75.3629 36.1166 71.9275 33.0725" stroke="black" stroke-width="3" stroke-miterlimit="1.5" stroke-linecap="round" stroke-linejoin="round"/>
<path d="M65.4029 30.1951C65.4029 30.1951 64.7665 9.86739 85.9726 16.0524" stroke="black" stroke-width="3" stroke-miterlimit="1.5" stroke-linecap="round" stroke-linejoin="round"/>
<path d="M79.8773 14.2373C79.8773 14.2373 79.6894 1.93654 94.5885 2.00025C109.488 2.06395 108.523 11.3207 109.089 11.3678" stroke="black" stroke-width="3" stroke-miterlimit="1.5" stroke-linecap="round" stroke-linejoin="round"/>
</svg>
