<svg width="285" height="215" viewBox="0 0 285 215" fill="none" xmlns="http://www.w3.org/2000/svg">
<path d="M152.432 53.2984C152.432 53.2984 213.836 -4.35478 231.045 76.6214" stroke="black" stroke-width="5" stroke-miterlimit="1.5" stroke-linecap="round" stroke-linejoin="round"/>
<path d="M202.254 93.1826C202.254 93.1826 264.725 50.4903 280.737 144C293.27 217.145 196.456 227.83 168.734 188.627C168.734 188.627 115.424 248.347 80.6898 177.553C80.6898 177.553 28.1784 242.658 3.01312 150.229C3.01312 150.229 0.655601 75.1879 59.1416 106.342" stroke="black" stroke-width="5" stroke-miterlimit="1.5" stroke-linecap="round" stroke-linejoin="round"/>
<path d="M40.9423 99.4678C40.9423 99.4678 38.9917 29.8877 103.982 51.0585" stroke="black" stroke-width="5" stroke-miterlimit="1.5" stroke-linecap="round" stroke-linejoin="round"/>
<path d="M85.3392 44.8874C85.3392 44.8874 84.7633 2.78278 130.425 3.00084C176.086 3.2189 173.13 34.9039 174.865 35.0651" stroke="black" stroke-width="5" stroke-miterlimit="1.5" stroke-linecap="round" stroke-linejoin="round"/>
</svg>
