<svg width="51" height="39" viewBox="0 0 51 39" fill="none" xmlns="http://www.w3.org/2000/svg">
<path d="M27.1482 9.8014C27.1482 9.8014 37.8929 -0.286972 40.9043 13.8825" stroke="black" stroke-width="2" stroke-miterlimit="1.5" stroke-linecap="round" stroke-linejoin="round"/>
<path d="M35.8662 16.7805C35.8662 16.7805 46.7977 9.31002 49.5995 25.6727C51.7925 38.4719 34.8517 40.3416 30.0007 33.4817C30.0007 33.4817 20.6723 43.9317 14.5945 31.5439C14.5945 31.5439 5.40581 42.9363 1.0023 26.7627C1.0023 26.7627 0.589768 13.6317 10.8239 19.0832" stroke="black" stroke-width="2" stroke-miterlimit="1.5" stroke-linecap="round" stroke-linejoin="round"/>
<path d="M7.63928 17.8803C7.63928 17.8803 7.29796 5.70491 18.6702 9.40946" stroke="black" stroke-width="2" stroke-miterlimit="1.5" stroke-linecap="round" stroke-linejoin="round"/>
<path d="M15.408 8.32961C15.408 8.32961 15.3072 0.961991 23.2973 1.00015C31.2873 1.0383 30.7699 6.58266 31.0736 6.61087" stroke="black" stroke-width="2" stroke-miterlimit="1.5" stroke-linecap="round" stroke-linejoin="round"/>
</svg>
