<svg width="51" height="44" viewBox="0 0 51 44" fill="none" xmlns="http://www.w3.org/2000/svg">
<path d="M26.5173 7.94254C26.5173 7.94254 35.9834 -0.0151641 38.6364 11.1618" stroke="black" stroke-width="2" stroke-miterlimit="1.5" stroke-linecap="round" stroke-linejoin="round"/>
<path d="M34.2008 13.4479C34.2008 13.4479 36.5058 12.0372 39.1505 12.1079C41.9101 12.1811 45.039 13.8693 46.2998 20.4621C48.2318 30.5581 40.6481 28.1607 28.8877 28.5677C28.8877 28.5677 17.0515 28.4525 15.7647 28.3858C15.7647 28.3858 5.30418 30.1014 3.48579 21.3218C3.48579 21.3218 3.12235 10.9641 12.1386 15.2642" stroke="black" stroke-width="2" stroke-miterlimit="1.5" stroke-linecap="round" stroke-linejoin="round"/>
<path d="M3.86328 32.3488L49.79 32.1542" stroke="black" stroke-miterlimit="1.5" stroke-linecap="round" stroke-linejoin="round"/>
<path d="M3.72412 39.4408L49.6509 39.2463" stroke="black" stroke-miterlimit="1.5" stroke-linecap="round" stroke-linejoin="round"/>
<path d="M46.6535 35.5074L1.13916 35.6179" stroke="black" stroke-miterlimit="1.5" stroke-linecap="round" stroke-linejoin="round"/>
<path d="M46.5143 42.5995L1 42.7099" stroke="black" stroke-miterlimit="1.5" stroke-linecap="round" stroke-linejoin="round"/>
<path d="M9.32714 14.3209C9.32714 14.3209 9.02644 4.71697 19.0454 7.63912" stroke="black" stroke-width="2" stroke-miterlimit="1.5" stroke-linecap="round" stroke-linejoin="round"/>
<path d="M16.1773 6.7816C16.1773 6.7816 16.0885 0.970018 23.1277 1.00012C30.1669 1.03021 29.7111 5.40361 29.9787 5.42585" stroke="black" stroke-width="2" stroke-miterlimit="1.5" stroke-linecap="round" stroke-linejoin="round"/>
</svg>
