<svg width="375" height="316" viewBox="0 0 375 316" fill="none" xmlns="http://www.w3.org/2000/svg">
<path fill-rule="evenodd" clip-rule="evenodd" d="M211.031 2.92767C211.031 2.92767 258.079 91.447 306.523 3.13772C306.523 3.13772 283.651 89.6857 372.002 77.133C372.002 77.133 296.724 123.706 372.319 184.078C372.319 184.078 282.645 155.775 268.064 277.719C268.064 277.719 264.305 186.138 217.232 189.769C217.232 189.769 213.461 129.478 166.299 145.336C166.299 145.336 224.409 129.837 143.87 76.5097C143.87 76.5097 246.066 105.104 211.031 2.92767Z" stroke="black" stroke-width="5" stroke-miterlimit="1.5" stroke-linecap="round" stroke-linejoin="round"/>
<path d="M261.788 194.137C294.295 194.137 320.646 164.314 320.646 127.526C320.646 90.7372 294.295 60.9144 261.788 60.9144C229.281 60.9144 202.929 90.7372 202.929 127.526C202.929 164.314 229.281 194.137 261.788 194.137Z" stroke="black" stroke-width="5" stroke-miterlimit="1.5" stroke-linecap="round" stroke-linejoin="round"/>
<path d="M142.602 161.972C142.602 161.972 200.118 107.252 216.238 184.109" stroke="black" stroke-width="5" stroke-miterlimit="1.5" stroke-linecap="round" stroke-linejoin="round"/>
<path d="M189.252 199.829C189.252 199.829 203.257 190.129 219.327 190.615C236.094 191.119 255.105 202.727 262.766 248.061C274.505 317.485 183.821 327.627 157.854 290.418C157.854 290.418 107.919 347.1 75.3844 279.907C75.3844 279.907 26.1976 341.7 2.62557 253.973C2.62557 253.973 0.41731 182.75 55.2004 212.319" stroke="black" stroke-width="5" stroke-miterlimit="1.5" stroke-linecap="round" stroke-linejoin="round"/>
<path d="M38.1533 205.796C38.1533 205.796 36.3263 139.755 97.202 159.849" stroke="black" stroke-width="5" stroke-miterlimit="1.5" stroke-linecap="round" stroke-linejoin="round"/>
<path d="M79.7395 153.991C79.7395 153.991 79.2 114.028 121.971 114.235C164.741 114.442 161.972 144.515 163.597 144.668" stroke="black" stroke-width="5" stroke-miterlimit="1.5" stroke-linecap="round" stroke-linejoin="round"/>
</svg>
