<svg width="73" height="61" viewBox="0 0 73 61" fill="none" xmlns="http://www.w3.org/2000/svg">
<path fill-rule="evenodd" clip-rule="evenodd" d="M40.6616 1C40.6616 1 49.6149 17.8402 58.8336 1.03996C58.8336 1.03996 54.4811 17.5052 71.2942 15.1171C71.2942 15.1171 56.9689 23.9773 71.3546 35.4627C71.3546 35.4627 54.2897 30.0783 51.5149 53.2773C51.5149 53.2773 50.7996 35.8545 41.8417 36.5453C41.8417 36.5453 41.1241 25.0753 32.1491 28.0923C32.1491 28.0923 43.2075 25.1436 27.8809 14.9985C27.8809 14.9985 47.3287 20.4384 40.6616 1Z" stroke="black" stroke-width="2" stroke-miterlimit="1.5" stroke-linecap="round" stroke-linejoin="round"/>
<path d="M50.3206 37.3763C56.5066 37.3763 61.5213 31.7027 61.5213 24.704C61.5213 17.7052 56.5066 12.0316 50.3206 12.0316C44.1346 12.0316 39.1198 17.7052 39.1198 24.704C39.1198 31.7027 44.1346 37.3763 50.3206 37.3763Z" stroke="black" stroke-width="2" stroke-miterlimit="1.5" stroke-linecap="round" stroke-linejoin="round"/>
<path d="M27.6397 31.2573C27.6397 31.2573 38.585 20.8471 41.6526 35.4686" stroke="black" stroke-width="2" stroke-miterlimit="1.5" stroke-linecap="round" stroke-linejoin="round"/>
<path d="M36.5172 38.4593C36.5172 38.4593 39.1823 36.6138 42.2403 36.7063C45.4311 36.8022 49.049 39.0105 50.5068 47.6352C52.7408 60.8426 35.4837 62.772 30.5421 55.6932C30.5421 55.6932 21.0396 66.4766 14.8483 53.6937C14.8483 53.6937 5.48806 65.4494 1.00234 48.7599C1.00234 48.7599 0.582109 35.2101 11.0073 40.8354" stroke="black" stroke-width="2" stroke-miterlimit="1.5" stroke-linecap="round" stroke-linejoin="round"/>
<path d="M7.7632 39.5944C7.7632 39.5944 7.41551 27.0306 19.0001 30.8533" stroke="black" stroke-width="2" stroke-miterlimit="1.5" stroke-linecap="round" stroke-linejoin="round"/>
<path d="M15.6771 29.7388C15.6771 29.7388 15.5744 22.1362 23.7136 22.1755C31.8528 22.2149 31.3258 27.9361 31.6351 27.9652" stroke="black" stroke-width="2" stroke-miterlimit="1.5" stroke-linecap="round" stroke-linejoin="round"/>
</svg>
