<svg width="52" height="61" viewBox="0 0 52 61" fill="none" xmlns="http://www.w3.org/2000/svg">
<path d="M28.0957 9.15684C28.0957 9.15684 38.8395 0.125034 41.8506 12.8106" stroke="black" stroke-width="2" stroke-miterlimit="1.5" stroke-linecap="round" stroke-linejoin="round"/>
<path d="M36.8163 15.4052C36.8163 15.4052 39.4323 13.8041 42.434 13.8843C45.5661 13.9675 49.1173 15.8835 50.5483 23.3662C52.7411 34.8249 35.8018 36.4988 30.9513 30.3573C30.9513 30.3573 21.6237 39.7129 15.5464 28.6225C15.5464 28.6225 6.35854 38.8217 1.95542 24.342C1.95542 24.342 1.54293 12.5862 11.7761 17.4668" stroke="black" stroke-width="2" stroke-miterlimit="1.5" stroke-linecap="round" stroke-linejoin="round"/>
<path d="M8.5852 16.3897C8.5852 16.3897 8.24391 5.4894 19.6152 8.80597" stroke="black" stroke-width="2" stroke-miterlimit="1.5" stroke-linecap="round" stroke-linejoin="round"/>
<path d="M16.3599 7.8392C16.3599 7.8392 16.2592 1.24319 24.2485 1.27735C32.2378 1.31151 31.7205 6.27521 32.0241 6.30046" stroke="black" stroke-width="2" stroke-miterlimit="1.5" stroke-linecap="round" stroke-linejoin="round"/>
<path fill-rule="evenodd" clip-rule="evenodd" d="M24.6659 45.6814C24.6659 45.6814 24.3074 46.4549 25.0678 47.3148C25.8278 48.1747 25.5028 49.3692 24.4835 49.333C23.4641 49.2969 23.4758 47.9874 24.0683 47.3524C24.6611 46.7177 24.5495 45.8676 24.6659 45.6814Z" stroke="black" stroke-width="2" stroke-miterlimit="1.5" stroke-linecap="round" stroke-linejoin="round"/>
<path fill-rule="evenodd" clip-rule="evenodd" d="M9.19347 45.4775C9.19347 45.4775 8.83502 46.251 9.59534 47.1109C10.3554 47.9708 10.0304 49.1652 9.01104 49.1291C7.99172 49.093 8.00338 47.7835 8.59591 47.1485C9.18867 46.5138 9.07711 45.6637 9.19347 45.4775Z" stroke="black" stroke-width="2" stroke-miterlimit="1.5" stroke-linecap="round" stroke-linejoin="round"/>
<path fill-rule="evenodd" clip-rule="evenodd" d="M34.2176 55.9569C34.2176 55.9569 33.8592 56.7304 34.6195 57.5903C35.3796 58.4502 35.0545 59.6447 34.0352 59.6085C33.0159 59.5724 33.0276 58.263 33.6201 57.628C34.2128 56.9932 34.1013 56.1431 34.2176 55.9569Z" stroke="black" stroke-width="2" stroke-miterlimit="1.5" stroke-linecap="round" stroke-linejoin="round"/>
<path fill-rule="evenodd" clip-rule="evenodd" d="M13.9563 33.8403C13.9563 33.8403 13.5978 34.6138 14.3582 35.4737C15.1182 36.3336 14.7932 37.5281 13.7739 37.492C12.7545 37.4558 12.7662 36.1464 13.3587 35.5114C13.9515 34.8766 13.8399 34.0266 13.9563 33.8403Z" stroke="black" stroke-width="2" stroke-miterlimit="1.5" stroke-linecap="round" stroke-linejoin="round"/>
<path fill-rule="evenodd" clip-rule="evenodd" d="M38.8357 39.2346C38.8357 39.2346 38.4772 40.0081 39.2376 40.868C39.9976 41.7279 39.6726 42.9224 38.6533 42.8863C37.6339 42.8501 37.6456 41.5407 38.2381 40.9057C38.8309 40.2709 38.7193 39.4209 38.8357 39.2346Z" stroke="black" stroke-width="2" stroke-miterlimit="1.5" stroke-linecap="round" stroke-linejoin="round"/>
<path fill-rule="evenodd" clip-rule="evenodd" d="M29.626 35.2809C29.626 35.2809 29.2675 36.0544 30.0278 36.9143C30.7879 37.7742 30.4629 38.9687 29.4435 38.9326C28.4242 38.8964 28.4359 37.587 29.0284 36.952C29.6212 36.3172 29.5096 35.4672 29.626 35.2809Z" stroke="black" stroke-width="2" stroke-miterlimit="1.5" stroke-linecap="round" stroke-linejoin="round"/>
</svg>
