<svg width="128" height="108" viewBox="0 0 128 108" fill="none" xmlns="http://www.w3.org/2000/svg">
<path d="M50.781 53.351C50.781 53.351 70.8283 34.2851 76.4469 61.0639" stroke="black" stroke-width="3" stroke-miterlimit="1.5" stroke-linecap="round" stroke-linejoin="round"/>
<path d="M67.0528 66.5413C67.0528 66.5413 71.9343 63.1614 77.5353 63.3307C83.3795 63.5063 90.006 67.5509 92.6761 83.3467C96.7678 107.536 65.1599 111.069 56.109 98.1047C56.109 98.1047 38.7043 117.854 27.3643 94.4426C27.3643 94.4426 10.2203 115.973 2.00428 85.4066C2.00428 85.4066 1.2346 60.5905 20.3292 70.8932" stroke="black" stroke-width="3" stroke-miterlimit="1.5" stroke-linecap="round" stroke-linejoin="round"/>
<path d="M14.3753 68.633C14.3753 68.633 13.7385 45.6228 34.9567 52.624" stroke="black" stroke-width="3" stroke-miterlimit="1.5" stroke-linecap="round" stroke-linejoin="round"/>
<path d="M28.8822 50.5695C28.8822 50.5695 28.6942 36.6455 43.6018 36.7176C58.5094 36.7897 57.5442 47.2679 58.1108 47.3212" stroke="black" stroke-width="3" stroke-miterlimit="1.5" stroke-linecap="round" stroke-linejoin="round"/>
<path d="M53.2303 39.0744C53.0671 38.0505 54.0077 34.9172 54.2956 34.1853C56.2964 29.092 58.9988 24.5279 62.1689 20.2895C69.806 10.079 81.3878 6.37557 92.2985 2.83143C93.5718 2.41734 95.1348 2 96.2874 2" stroke="black" stroke-width="3" stroke-miterlimit="1.5" stroke-linecap="round" stroke-linejoin="round"/>
<path d="M96.2576 2.02771C95.8846 2.45545 94.174 4.23142 93.8632 4.60976C92.7559 5.95669 91.509 7.78597 90.7137 9.36042C87.1678 16.3817 83.6374 23.6872 81.8958 31.5698C80.3754 38.4488 80.1467 46.7371 81.3706 53.6603C81.8584 56.4204 82.2762 59.3464 83.0502 61.9739C83.3409 62.9601 83.9265 64.894 84.3 65.6598" stroke="black" stroke-width="3" stroke-miterlimit="1.5" stroke-linecap="round" stroke-linejoin="round"/>
<path d="M90.3064 74.3772C90.9557 75.4888 91.8251 76.4769 92.2595 76.8254C93.5524 77.8622 95.637 79.3515 97.8458 80.5034C103.692 83.5516 109.607 83.0699 115.554 80.5866C118.833 79.2176 121.053 77.3948 123.237 74.7614C123.93 73.9261 124.467 73.278 125.135 72.4739C125.269 72.3113 126.254 71.2582 125.938 71.3902" stroke="black" stroke-width="3" stroke-miterlimit="1.5" stroke-linecap="round" stroke-linejoin="round"/>
<path d="M125.998 71.3788C125.701 72.0919 124.528 75.3357 124.224 75.9786C122.627 79.3577 120.419 82.2277 118.161 85.073C111.553 93.4023 96.2002 100.108 92.8428 101.321C90.1099 102.309 86.9346 102.762 84.1196 102.729" stroke="black" stroke-width="3" stroke-miterlimit="1.5" stroke-linecap="round" stroke-linejoin="round"/>
</svg>
