<svg width="285" height="345" viewBox="0 0 285 345" fill="none" xmlns="http://www.w3.org/2000/svg">
<path d="M152.432 53.2984C152.432 53.2984 213.836 -4.35478 231.045 76.6214" stroke="black" stroke-width="5" stroke-miterlimit="1.5" stroke-linecap="round" stroke-linejoin="round"/>
<path d="M202.254 93.1826C202.254 93.1826 264.725 50.4903 280.737 144C293.27 217.145 196.456 227.83 168.734 188.627C168.734 188.627 115.424 248.347 80.6898 177.553C80.6898 177.553 28.1784 242.658 3.01312 150.229C3.01312 150.229 0.655601 75.1879 59.1416 106.342" stroke="black" stroke-width="5" stroke-miterlimit="1.5" stroke-linecap="round" stroke-linejoin="round"/>
<path d="M40.9423 99.4678C40.9423 99.4678 38.9917 29.8877 103.982 51.0585" stroke="black" stroke-width="5" stroke-miterlimit="1.5" stroke-linecap="round" stroke-linejoin="round"/>
<path d="M85.3392 44.8874C85.3392 44.8874 84.7633 2.78278 130.425 3.00084C176.086 3.2189 173.13 34.9039 174.865 35.0651" stroke="black" stroke-width="5" stroke-miterlimit="1.5" stroke-linecap="round" stroke-linejoin="round"/>
<path d="M44.1833 227.194C44.4432 227.209 49.3738 233.027 49.3738 233.027L54.5012 227.1" stroke="black" stroke-width="4" stroke-miterlimit="1.5" stroke-linecap="round" stroke-linejoin="round"/>
<path d="M43.7014 293.332L49.4191 286.023L54.0823 293.364" stroke="black" stroke-width="4" stroke-miterlimit="1.5" stroke-linecap="round" stroke-linejoin="round"/>
<path d="M49.5557 224.08L49.4202 293.528" stroke="black" stroke-width="4" stroke-miterlimit="1.5" stroke-linecap="round" stroke-linejoin="round"/>
<path d="M80.1429 253.668C80.129 253.933 74.4301 258.981 74.4301 258.981L80.2738 264.173" stroke="black" stroke-width="4" stroke-miterlimit="1.5" stroke-linecap="round" stroke-linejoin="round"/>
<path d="M15.1917 253.436L22.3946 259.222L15.1983 264.005" stroke="black" stroke-width="4" stroke-miterlimit="1.5" stroke-linecap="round" stroke-linejoin="round"/>
<path d="M83.1872 259.108L15.0001 259.265" stroke="black" stroke-width="4" stroke-miterlimit="1.5" stroke-linecap="round" stroke-linejoin="round"/>
<path d="M74.7988 277.263C74.6072 277.442 67.0697 276.975 67.0697 276.975L67.6846 284.856" stroke="black" stroke-width="4" stroke-miterlimit="1.5" stroke-linecap="round" stroke-linejoin="round"/>
<path d="M28.5519 230.798L29.7311 240.073L21.3057 238.347" stroke="black" stroke-width="4" stroke-miterlimit="1.5" stroke-linecap="round" stroke-linejoin="round"/>
<path d="M73.2612 283.324L24.4533 234.827" stroke="black" stroke-width="4" stroke-miterlimit="1.5" stroke-linecap="round" stroke-linejoin="round"/>
<path d="M30.1816 286.769C30.0066 286.573 30.4908 278.907 30.4908 278.907L22.7569 279.461" stroke="black" stroke-width="4" stroke-miterlimit="1.5" stroke-linecap="round" stroke-linejoin="round"/>
<path d="M76.076 239.983L66.9695 241.099L68.6926 232.538" stroke="black" stroke-width="4" stroke-miterlimit="1.5" stroke-linecap="round" stroke-linejoin="round"/>
<path d="M24.1993 285.156L72.1214 235.752" stroke="black" stroke-width="4" stroke-miterlimit="1.5" stroke-linecap="round" stroke-linejoin="round"/>
<path d="M118.463 275.801C118.723 275.816 123.654 281.634 123.654 281.634L128.781 275.706" stroke="black" stroke-width="4" stroke-miterlimit="1.5" stroke-linecap="round" stroke-linejoin="round"/>
<path d="M117.981 341.939L123.699 334.629L128.362 341.971" stroke="black" stroke-width="4" stroke-miterlimit="1.5" stroke-linecap="round" stroke-linejoin="round"/>
<path d="M123.835 272.687L123.7 342.135" stroke="black" stroke-width="4" stroke-miterlimit="1.5" stroke-linecap="round" stroke-linejoin="round"/>
<path d="M154.423 302.275C154.409 302.539 148.71 307.587 148.71 307.587L154.554 312.779" stroke="black" stroke-width="4" stroke-miterlimit="1.5" stroke-linecap="round" stroke-linejoin="round"/>
<path d="M89.4715 302.043L96.6744 307.829L89.4781 312.612" stroke="black" stroke-width="4" stroke-miterlimit="1.5" stroke-linecap="round" stroke-linejoin="round"/>
<path d="M157.467 307.714L89.2798 307.871" stroke="black" stroke-width="4" stroke-miterlimit="1.5" stroke-linecap="round" stroke-linejoin="round"/>
<path d="M149.079 325.87C148.887 326.049 141.35 325.582 141.35 325.582L141.964 333.463" stroke="black" stroke-width="4" stroke-miterlimit="1.5" stroke-linecap="round" stroke-linejoin="round"/>
<path d="M102.832 279.404L104.011 288.679L95.5855 286.953" stroke="black" stroke-width="4" stroke-miterlimit="1.5" stroke-linecap="round" stroke-linejoin="round"/>
<path d="M147.541 331.93L98.7331 283.434" stroke="black" stroke-width="4" stroke-miterlimit="1.5" stroke-linecap="round" stroke-linejoin="round"/>
<path d="M104.461 335.376C104.286 335.179 104.771 327.513 104.771 327.513L97.0367 328.067" stroke="black" stroke-width="4" stroke-miterlimit="1.5" stroke-linecap="round" stroke-linejoin="round"/>
<path d="M150.356 288.589L141.249 289.705L142.972 281.145" stroke="black" stroke-width="4" stroke-miterlimit="1.5" stroke-linecap="round" stroke-linejoin="round"/>
<path d="M98.4791 333.763L146.401 284.359" stroke="black" stroke-width="4" stroke-miterlimit="1.5" stroke-linecap="round" stroke-linejoin="round"/>
<path d="M161.996 210.114C162.256 210.129 167.187 215.947 167.187 215.947L172.314 210.019" stroke="black" stroke-width="4" stroke-miterlimit="1.5" stroke-linecap="round" stroke-linejoin="round"/>
<path d="M161.514 276.252L167.232 268.942L171.895 276.284" stroke="black" stroke-width="4" stroke-miterlimit="1.5" stroke-linecap="round" stroke-linejoin="round"/>
<path d="M167.369 207L167.233 276.448" stroke="black" stroke-width="4" stroke-miterlimit="1.5" stroke-linecap="round" stroke-linejoin="round"/>
<path d="M197.956 236.588C197.942 236.852 192.243 241.9 192.243 241.9L198.087 247.092" stroke="black" stroke-width="4" stroke-miterlimit="1.5" stroke-linecap="round" stroke-linejoin="round"/>
<path d="M133.005 236.356L140.208 242.142L133.011 246.925" stroke="black" stroke-width="4" stroke-miterlimit="1.5" stroke-linecap="round" stroke-linejoin="round"/>
<path d="M201 242.027L132.813 242.184" stroke="black" stroke-width="4" stroke-miterlimit="1.5" stroke-linecap="round" stroke-linejoin="round"/>
<path d="M192.612 260.183C192.42 260.362 184.883 259.895 184.883 259.895L185.498 267.776" stroke="black" stroke-width="4" stroke-miterlimit="1.5" stroke-linecap="round" stroke-linejoin="round"/>
<path d="M146.365 213.717L147.544 222.993L139.119 221.266" stroke="black" stroke-width="4" stroke-miterlimit="1.5" stroke-linecap="round" stroke-linejoin="round"/>
<path d="M191.074 266.244L142.266 217.747" stroke="black" stroke-width="4" stroke-miterlimit="1.5" stroke-linecap="round" stroke-linejoin="round"/>
<path d="M147.995 269.689C147.82 269.492 148.304 261.826 148.304 261.826L140.57 262.38" stroke="black" stroke-width="4" stroke-miterlimit="1.5" stroke-linecap="round" stroke-linejoin="round"/>
<path d="M193.889 222.902L184.783 224.018L186.506 215.458" stroke="black" stroke-width="4" stroke-miterlimit="1.5" stroke-linecap="round" stroke-linejoin="round"/>
<path d="M142.012 268.076L189.934 218.672" stroke="black" stroke-width="4" stroke-miterlimit="1.5" stroke-linecap="round" stroke-linejoin="round"/>
</svg>
