<svg width="51" height="61" viewBox="0 0 51 61" fill="none" xmlns="http://www.w3.org/2000/svg">
<path d="M27.1459 9.80063C27.1459 9.80063 37.8897 -0.286844 40.9008 13.8814" stroke="black" stroke-width="2" stroke-miterlimit="1.5" stroke-linecap="round" stroke-linejoin="round"/>
<path d="M35.8631 16.7791C35.8631 16.7791 46.7937 9.30931 49.5952 25.6706C51.788 38.4686 34.8487 40.3382 29.9981 33.4788C29.9981 33.4788 20.6706 43.9279 14.5933 31.5413C14.5933 31.5413 5.40542 42.9326 1.0023 26.7604C1.0023 26.7604 0.589804 13.6306 10.823 19.0816" stroke="black" stroke-width="2" stroke-miterlimit="1.5" stroke-linecap="round" stroke-linejoin="round"/>
<path d="M7.63867 17.8788C7.63867 17.8788 7.29738 5.70444 18.6686 9.40866" stroke="black" stroke-width="2" stroke-miterlimit="1.5" stroke-linecap="round" stroke-linejoin="round"/>
<path d="M15.4068 8.32896C15.4068 8.32896 15.306 0.961994 23.2953 1.00015C31.2846 1.0383 30.7673 6.58217 31.071 6.61037" stroke="black" stroke-width="2" stroke-miterlimit="1.5" stroke-linecap="round" stroke-linejoin="round"/>
<path d="M8.20581 40.2269C8.25128 40.2295 9.11398 41.2474 9.11398 41.2474L10.0111 40.2103" stroke="black" stroke-miterlimit="1.5" stroke-linecap="round" stroke-linejoin="round"/>
<path d="M8.12146 51.7989L9.12187 50.52L9.93779 51.8046" stroke="black" stroke-miterlimit="1.5" stroke-linecap="round" stroke-linejoin="round"/>
<path d="M9.14578 39.6821L9.12207 51.8332" stroke="black" stroke-miterlimit="1.5" stroke-linecap="round" stroke-linejoin="round"/>
<path d="M14.4975 44.859C14.4951 44.9053 13.498 45.7886 13.498 45.7886L14.5204 46.697" stroke="black" stroke-miterlimit="1.5" stroke-linecap="round" stroke-linejoin="round"/>
<path d="M3.13318 44.8184L4.39345 45.8308L3.13434 46.6676" stroke="black" stroke-miterlimit="1.5" stroke-linecap="round" stroke-linejoin="round"/>
<path d="M15.0302 45.8107L3.09966 45.8382" stroke="black" stroke-miterlimit="1.5" stroke-linecap="round" stroke-linejoin="round"/>
<path d="M13.5623 48.9873C13.5288 49.0187 12.21 48.937 12.21 48.937L12.3175 50.3159" stroke="black" stroke-miterlimit="1.5" stroke-linecap="round" stroke-linejoin="round"/>
<path d="M5.47059 40.8574L5.67691 42.4803L4.20273 42.1782" stroke="black" stroke-miterlimit="1.5" stroke-linecap="round" stroke-linejoin="round"/>
<path d="M13.2935 50.0478L4.75363 41.5624" stroke="black" stroke-miterlimit="1.5" stroke-linecap="round" stroke-linejoin="round"/>
<path d="M5.75588 50.6507C5.72527 50.6163 5.80999 49.275 5.80999 49.275L4.4568 49.3719" stroke="black" stroke-miterlimit="1.5" stroke-linecap="round" stroke-linejoin="round"/>
<path d="M13.786 42.4645L12.1927 42.6598L12.4942 41.1619" stroke="black" stroke-miterlimit="1.5" stroke-linecap="round" stroke-linejoin="round"/>
<path d="M4.70926 50.3684L13.0941 41.7243" stroke="black" stroke-miterlimit="1.5" stroke-linecap="round" stroke-linejoin="round"/>
<path d="M21.2024 48.7316C21.2479 48.7342 22.1106 49.7521 22.1106 49.7521L23.0077 48.715" stroke="black" stroke-miterlimit="1.5" stroke-linecap="round" stroke-linejoin="round"/>
<path d="M21.118 60.3035L22.1185 59.0246L22.9344 60.3091" stroke="black" stroke-miterlimit="1.5" stroke-linecap="round" stroke-linejoin="round"/>
<path d="M22.1424 48.1867L22.1187 60.3378" stroke="black" stroke-miterlimit="1.5" stroke-linecap="round" stroke-linejoin="round"/>
<path d="M27.4941 53.3636C27.4917 53.4099 26.4946 54.2931 26.4946 54.2931L27.517 55.2016" stroke="black" stroke-miterlimit="1.5" stroke-linecap="round" stroke-linejoin="round"/>
<path d="M16.1298 53.3231L17.39 54.3355L16.1309 55.1723" stroke="black" stroke-miterlimit="1.5" stroke-linecap="round" stroke-linejoin="round"/>
<path d="M28.0268 54.3153L16.0962 54.3428" stroke="black" stroke-miterlimit="1.5" stroke-linecap="round" stroke-linejoin="round"/>
<path d="M26.5589 57.492C26.5254 57.5234 25.2065 57.4417 25.2065 57.4417L25.3141 58.8206" stroke="black" stroke-miterlimit="1.5" stroke-linecap="round" stroke-linejoin="round"/>
<path d="M18.4672 49.362L18.6735 50.9849L17.1993 50.6829" stroke="black" stroke-miterlimit="1.5" stroke-linecap="round" stroke-linejoin="round"/>
<path d="M26.2901 58.5525L17.7502 50.0671" stroke="black" stroke-miterlimit="1.5" stroke-linecap="round" stroke-linejoin="round"/>
<path d="M18.7525 59.1553C18.7218 59.1209 18.8066 57.7795 18.8066 57.7795L17.4534 57.8765" stroke="black" stroke-miterlimit="1.5" stroke-linecap="round" stroke-linejoin="round"/>
<path d="M26.7825 50.9691L25.1892 51.1644L25.4907 49.6665" stroke="black" stroke-miterlimit="1.5" stroke-linecap="round" stroke-linejoin="round"/>
<path d="M17.7057 58.873L26.0906 50.2289" stroke="black" stroke-miterlimit="1.5" stroke-linecap="round" stroke-linejoin="round"/>
<path d="M28.8192 37.2385C28.8647 37.2411 29.7274 38.259 29.7274 38.259L30.6245 37.2219" stroke="black" stroke-miterlimit="1.5" stroke-linecap="round" stroke-linejoin="round"/>
<path d="M28.735 48.8105L29.7354 47.5316L30.5513 48.8161" stroke="black" stroke-miterlimit="1.5" stroke-linecap="round" stroke-linejoin="round"/>
<path d="M29.7593 36.6937L29.7356 48.8448" stroke="black" stroke-miterlimit="1.5" stroke-linecap="round" stroke-linejoin="round"/>
<path d="M35.1111 41.8706C35.1086 41.9169 34.1115 42.8001 34.1115 42.8001L35.134 43.7085" stroke="black" stroke-miterlimit="1.5" stroke-linecap="round" stroke-linejoin="round"/>
<path d="M23.7467 41.83L25.007 42.8424L23.7479 43.6792" stroke="black" stroke-miterlimit="1.5" stroke-linecap="round" stroke-linejoin="round"/>
<path d="M35.6438 42.8223L23.7132 42.8498" stroke="black" stroke-miterlimit="1.5" stroke-linecap="round" stroke-linejoin="round"/>
<path d="M34.1758 45.9989C34.1423 46.0303 32.8235 45.9486 32.8235 45.9486L32.9311 47.3274" stroke="black" stroke-miterlimit="1.5" stroke-linecap="round" stroke-linejoin="round"/>
<path d="M26.0841 37.869L26.2904 39.4919L24.8163 39.1898" stroke="black" stroke-miterlimit="1.5" stroke-linecap="round" stroke-linejoin="round"/>
<path d="M33.907 47.0594L25.3672 38.574" stroke="black" stroke-miterlimit="1.5" stroke-linecap="round" stroke-linejoin="round"/>
<path d="M26.3694 47.6622C26.3388 47.6278 26.4235 46.2865 26.4235 46.2865L25.0703 46.3834" stroke="black" stroke-miterlimit="1.5" stroke-linecap="round" stroke-linejoin="round"/>
<path d="M34.3995 39.4761L32.8061 39.6713L33.1076 38.1735" stroke="black" stroke-miterlimit="1.5" stroke-linecap="round" stroke-linejoin="round"/>
<path d="M25.3227 47.3799L33.7075 38.7358" stroke="black" stroke-miterlimit="1.5" stroke-linecap="round" stroke-linejoin="round"/>
</svg>
