<svg width="285" height="360" viewBox="0 0 285 360" fill="none" xmlns="http://www.w3.org/2000/svg">
<path fill-rule="evenodd" clip-rule="evenodd" d="M61.9148 208.848L49.779 238.329L65.5227 237.132L50.003 267.192L58.5677 269.761L45.7961 300.713L88.0386 225.834L73.4106 226.451L86.1775 207L61.9148 208.848Z" stroke="black" stroke-width="5" stroke-miterlimit="1.5" stroke-linecap="round" stroke-linejoin="round"/>
<path fill-rule="evenodd" clip-rule="evenodd" d="M181.193 223.305L163.558 266.144L186.435 264.405L163.884 308.087L176.329 311.819L157.771 356.795L219.154 247.988L197.897 248.885L216.449 220.62L181.193 223.305Z" stroke="black" stroke-width="5" stroke-miterlimit="1.5" stroke-linecap="round" stroke-linejoin="round"/>
<path fill-rule="evenodd" clip-rule="evenodd" d="M115.402 286.218C115.402 286.218 113.629 289.785 117.389 293.75C121.148 297.716 119.541 303.224 114.5 303.057C109.459 302.89 109.517 296.852 112.447 293.924C115.378 290.997 114.826 287.077 115.402 286.218Z" stroke="black" stroke-width="2" stroke-miterlimit="1.5" stroke-linecap="round" stroke-linejoin="round"/>
<path fill-rule="evenodd" clip-rule="evenodd" d="M5.96508 305.435C5.96508 305.435 4.19249 309.002 7.95244 312.967C11.7113 316.933 10.1037 322.44 5.06296 322.274C0.0221845 322.107 0.0798452 316.069 3.01003 313.141C5.94134 310.214 5.38967 306.294 5.96508 305.435Z" stroke="black" stroke-width="2" stroke-miterlimit="1.5" stroke-linecap="round" stroke-linejoin="round"/>
<path fill-rule="evenodd" clip-rule="evenodd" d="M217.063 320.041C217.063 320.041 215.291 323.608 219.051 327.573C222.81 331.539 221.202 337.047 216.161 336.88C211.121 336.713 211.178 330.675 214.108 327.747C217.04 324.82 216.488 320.9 217.063 320.041Z" stroke="black" stroke-width="2" stroke-miterlimit="1.5" stroke-linecap="round" stroke-linejoin="round"/>
<path fill-rule="evenodd" clip-rule="evenodd" d="M29.5181 251.758C29.5181 251.758 27.7455 255.325 31.5054 259.29C35.2642 263.256 33.6567 268.764 28.6159 268.597C23.5752 268.43 23.6328 262.392 26.563 259.464C29.4943 256.537 28.9426 252.617 29.5181 251.758Z" stroke="black" stroke-width="2" stroke-miterlimit="1.5" stroke-linecap="round" stroke-linejoin="round"/>
<path fill-rule="evenodd" clip-rule="evenodd" d="M239.901 242.946C239.901 242.946 238.128 246.513 241.888 250.478C245.647 254.444 244.04 259.951 238.999 259.785C233.958 259.618 234.016 253.58 236.946 250.652C239.877 247.725 239.325 243.805 239.901 242.946Z" stroke="black" stroke-width="2" stroke-miterlimit="1.5" stroke-linecap="round" stroke-linejoin="round"/>
<path fill-rule="evenodd" clip-rule="evenodd" d="M139.931 238.26C139.931 238.26 138.158 241.826 141.918 245.792C145.677 249.757 144.07 255.265 139.029 255.098C133.988 254.932 134.046 248.893 136.976 245.965C139.907 243.038 139.355 239.118 139.931 238.26Z" stroke="black" stroke-width="2" stroke-miterlimit="1.5" stroke-linecap="round" stroke-linejoin="round"/>
<path d="M152.432 53.2984C152.432 53.2984 213.836 -4.35478 231.045 76.6214" stroke="black" stroke-width="5" stroke-miterlimit="1.5" stroke-linecap="round" stroke-linejoin="round"/>
<path d="M202.254 93.1826C202.254 93.1826 264.725 50.4903 280.737 144C293.27 217.145 196.456 227.83 168.734 188.627C168.734 188.627 115.424 248.347 80.6898 177.553C80.6898 177.553 28.1784 242.658 3.01312 150.229C3.01312 150.229 0.655601 75.1879 59.1416 106.342" stroke="black" stroke-width="5" stroke-miterlimit="1.5" stroke-linecap="round" stroke-linejoin="round"/>
<path d="M40.9423 99.4678C40.9423 99.4678 38.9917 29.8877 103.982 51.0585" stroke="black" stroke-width="5" stroke-miterlimit="1.5" stroke-linecap="round" stroke-linejoin="round"/>
<path d="M85.3392 44.8874C85.3392 44.8874 84.7633 2.78278 130.425 3.00084C176.086 3.2189 173.13 34.9039 174.865 35.0651" stroke="black" stroke-width="5" stroke-miterlimit="1.5" stroke-linecap="round" stroke-linejoin="round"/>
</svg>
