<svg width="51" height="63" viewBox="0 0 51 63" fill="none" xmlns="http://www.w3.org/2000/svg">
<path fill-rule="evenodd" clip-rule="evenodd" d="M11.5832 35.9921L9.47474 41.0036L12.21 40.8001L9.51367 45.9102L11.0017 46.3468L8.78278 51.6083L16.1219 38.8797L13.5804 38.9846L15.7985 35.6781L11.5832 35.9921Z" stroke="black" stroke-width="2" stroke-miterlimit="1.5" stroke-linecap="round" stroke-linejoin="round"/>
<path fill-rule="evenodd" clip-rule="evenodd" d="M32.3063 38.4497L29.2424 45.732L33.2171 45.4363L29.299 52.8618L31.4612 53.4963L28.2369 61.1419L38.9015 42.6456L35.2085 42.7982L38.4317 37.9934L32.3063 38.4497Z" stroke="black" stroke-width="2" stroke-miterlimit="1.5" stroke-linecap="round" stroke-linejoin="round"/>
<path fill-rule="evenodd" clip-rule="evenodd" d="M20.8759 49.1444C20.8759 49.1444 20.568 49.7507 21.2212 50.4248C21.8743 51.0988 21.595 52.0351 20.7192 52.0068C19.8434 51.9785 19.8534 50.9521 20.3625 50.4543C20.8718 49.9567 20.776 49.2904 20.8759 49.1444Z" stroke="black" stroke-width="2" stroke-miterlimit="1.5" stroke-linecap="round" stroke-linejoin="round"/>
<path fill-rule="evenodd" clip-rule="evenodd" d="M1.86262 52.4111C1.86262 52.4111 1.55466 53.0174 2.2079 53.6915C2.86095 54.3655 2.58166 55.3018 1.70589 55.2735C0.830117 55.2452 0.840134 54.2188 1.34922 53.721C1.8585 53.2234 1.76265 52.5571 1.86262 52.4111Z" stroke="black" stroke-width="2" stroke-miterlimit="1.5" stroke-linecap="round" stroke-linejoin="round"/>
<path fill-rule="evenodd" clip-rule="evenodd" d="M38.5384 54.894C38.5384 54.894 38.2304 55.5003 38.8837 56.1744C39.5367 56.8484 39.2574 57.7847 38.3817 57.7564C37.5059 57.7281 37.5159 56.7017 38.025 56.2039C38.5343 55.7063 38.4384 55.04 38.5384 54.894Z" stroke="black" stroke-width="2" stroke-miterlimit="1.5" stroke-linecap="round" stroke-linejoin="round"/>
<path fill-rule="evenodd" clip-rule="evenodd" d="M5.95466 43.2866C5.95466 43.2866 5.6467 43.8929 6.29994 44.5669C6.95299 45.241 6.6737 46.1773 5.79793 46.149C4.92216 46.1206 4.93218 45.0942 5.44126 44.5964C5.95054 44.0989 5.85469 43.4326 5.95466 43.2866Z" stroke="black" stroke-width="2" stroke-miterlimit="1.5" stroke-linecap="round" stroke-linejoin="round"/>
<path fill-rule="evenodd" clip-rule="evenodd" d="M42.5061 41.7886C42.5061 41.7886 42.1981 42.3949 42.8513 43.069C43.5044 43.743 43.2251 44.6793 42.3493 44.651C41.4735 44.6227 41.4836 43.5962 41.9927 43.0985C42.5019 42.6009 42.4061 41.9346 42.5061 41.7886Z" stroke="black" stroke-width="2" stroke-miterlimit="1.5" stroke-linecap="round" stroke-linejoin="round"/>
<path fill-rule="evenodd" clip-rule="evenodd" d="M25.1375 40.9919C25.1375 40.9919 24.8296 41.5982 25.4828 42.2723C26.1359 42.9463 25.8566 43.8826 24.9808 43.8543C24.105 43.826 24.115 42.7995 24.6241 42.3018C25.1334 41.8042 25.0376 41.1379 25.1375 40.9919Z" stroke="black" stroke-width="2" stroke-miterlimit="1.5" stroke-linecap="round" stroke-linejoin="round"/>
<path d="M27.3094 9.55024C27.3094 9.55024 37.9777 -0.250241 40.9676 13.5149" stroke="black" stroke-width="2" stroke-miterlimit="1.5" stroke-linecap="round" stroke-linejoin="round"/>
<path d="M35.9654 16.3302C35.9654 16.3302 46.8191 9.07289 49.6009 24.9687C51.7783 37.4026 34.9581 39.219 30.1417 32.5548C30.1417 32.5548 20.8797 42.7066 14.8451 30.6723C14.8451 30.6723 5.72191 41.7396 1.34975 26.0275C1.34975 26.0275 0.940163 13.2713 11.1014 18.5672" stroke="black" stroke-width="2" stroke-miterlimit="1.5" stroke-linecap="round" stroke-linejoin="round"/>
<path d="M7.9395 17.3986C7.9395 17.3986 7.60062 5.57065 18.8919 9.16949" stroke="black" stroke-width="2" stroke-miterlimit="1.5" stroke-linecap="round" stroke-linejoin="round"/>
<path d="M15.6529 8.12045C15.6529 8.12045 15.5528 0.963075 23.4859 1.00014C31.4191 1.03721 30.9054 6.42336 31.2069 6.45075" stroke="black" stroke-width="2" stroke-miterlimit="1.5" stroke-linecap="round" stroke-linejoin="round"/>
</svg>
