<svg width="51" height="51" viewBox="0 0 51 51" fill="none" xmlns="http://www.w3.org/2000/svg">
<path fill-rule="evenodd" clip-rule="evenodd" d="M15.3449 1C15.3449 1 25.394 17.4621 35.7409 1.03906C35.7409 1.03906 30.8558 17.1346 49.7266 14.8001C49.7266 14.8001 33.648 23.4614 49.7943 34.689C49.7943 34.689 31.3224 27.5558 36.1219 48.6617C36.1219 48.6617 26.1176 29.2742 15.2183 49.0484C15.2183 49.0484 23.0287 27.5243 1.20328 34.9384C1.20328 34.9384 20.9997 26.7193 1 14.6842C1 14.6842 22.828 20.0019 15.3449 1Z" stroke="black" stroke-width="2" stroke-miterlimit="1.5" stroke-linecap="round" stroke-linejoin="round"/>
<path d="M26.186 36.5596C33.1291 36.5596 38.7576 31.0134 38.7576 24.1718C38.7576 17.3301 33.1291 11.7839 26.186 11.7839C19.2429 11.7839 13.6144 17.3301 13.6144 24.1718C13.6144 31.0134 19.2429 36.5596 26.186 36.5596Z" stroke="black" stroke-width="2" stroke-miterlimit="1.5" stroke-linecap="round" stroke-linejoin="round"/>
</svg>
