<svg width="308" height="303" viewBox="0 0 308 303" fill="none" xmlns="http://www.w3.org/2000/svg">
<path fill-rule="evenodd" clip-rule="evenodd" d="M91.6562 3C91.6562 3 153.763 104.741 217.711 3.24142C217.711 3.24142 187.519 102.717 304.147 88.2894C304.147 88.2894 204.776 141.819 304.565 211.209C304.565 211.209 190.403 167.124 220.065 297.565C220.065 297.565 158.235 177.744 90.8739 299.955C90.8739 299.955 139.145 166.929 4.25635 212.751C4.25635 212.751 126.605 161.954 3 87.573C3 87.573 137.904 120.438 91.6562 3Z" stroke="black" stroke-width="5" stroke-miterlimit="1.5" stroke-linecap="round" stroke-linejoin="round"/>
<path d="M158.658 222.77C201.569 222.77 236.355 188.493 236.355 146.209C236.355 103.926 201.569 69.6482 158.658 69.6482C115.747 69.6482 80.9615 103.926 80.9615 146.209C80.9615 188.493 115.747 222.77 158.658 222.77Z" stroke="black" stroke-width="5" stroke-miterlimit="1.5" stroke-linecap="round" stroke-linejoin="round"/>
</svg>
