<svg width="89" height="89" viewBox="0 0 89 89" fill="none" xmlns="http://www.w3.org/2000/svg">
<path fill-rule="evenodd" clip-rule="evenodd" d="M36.8542 17.9705C36.8272 17.6243 37.2184 17.1362 37.2775 17.0515C37.4014 16.8753 37.7102 16.4494 37.9291 15.9625C38.4316 14.846 38.8335 13.6879 39.2498 12.5372C40.2335 9.8212 40.6052 8.21039 41.3737 5.4159C41.4662 5.08029 41.5794 4.75215 41.6385 4.40969C41.6869 4.12389 41.7241 3.55914 42.014 3.56973C42.2914 3.57969 42.1951 4.1737 42.2184 4.42464C42.2454 4.71479 42.3197 5.21354 42.3586 5.50307C42.6524 7.68549 42.741 9.61011 43.0681 11.7882C43.2241 12.8286 43.3725 13.871 43.4637 14.9189C43.5046 15.3958 43.8656 16.0889 43.4637 16.3541C43.1165 16.5826 43.2574 15.5478 43.0681 15.1798C42.6373 14.3429 41.7209 13.1474 40.9599 12.5708C39.8253 11.7116 38.2769 11.5123 37.1429 11.1157C36.7429 10.9762 35.8089 10.7483 35.9529 10.3529C36.1014 9.94386 36.8957 10.1338 37.3184 10.1699C39.4209 10.3492 40.0876 10.6475 42.7794 9.93203C43.6826 9.69231 44.5574 9.35607 45.4398 9.04848C45.7914 8.92644 46.1285 8.76393 46.4807 8.64438C46.8191 8.52918 47.4147 8.19793 47.548 8.5267C47.6059 8.66928 47.4197 8.81249 47.3159 8.92644C47.0908 9.17301 46.8272 9.38222 46.5713 9.59704C46.1581 9.9451 45.7279 10.2732 45.3084 10.6145C45.2901 10.6288 40.0517 14.9064 40.0373 14.9189C39.4806 15.4102 39.0272 16.0104 38.4561 16.4842C38.224 16.6779 38.0429 16.8018 37.8146 17.0004C37.7045 17.0969 37.4957 17.2233 37.4309 17.3161C37.2353 17.5982 37.0366 17.8105 36.8542 17.9705Z" stroke="black" stroke-miterlimit="1.5" stroke-linecap="round" stroke-linejoin="round"/>
<path fill-rule="evenodd" clip-rule="evenodd" d="M51.9826 44.7861C51.9556 44.4399 52.3468 43.9518 52.4059 43.8671C52.5298 43.6909 52.8386 43.265 53.0575 42.7781C53.56 41.6617 53.9619 40.5035 54.3782 39.3528C55.3619 36.6368 55.7336 35.026 56.5022 32.2315C56.5946 31.8959 56.7078 31.5678 56.7669 31.2253C56.8154 30.9395 56.8525 30.3748 57.1424 30.3853C57.4198 30.3953 57.3235 30.9893 57.3468 31.2402C57.3739 31.5304 57.4481 32.0292 57.4871 32.3187C57.7808 34.5011 57.8695 36.4257 58.1965 38.6038C58.3525 39.6442 58.5009 40.6866 58.5921 41.7345C58.633 42.2115 58.994 42.9045 58.5921 43.1697C58.2449 43.3982 58.3858 42.3634 58.1965 41.9954C57.7657 41.1586 56.8493 39.963 56.0883 39.3865C54.9537 38.5272 53.4053 38.3279 52.2713 37.9313C51.8713 37.7918 50.9373 37.564 51.0814 37.1686C51.2298 36.7595 52.0241 36.9494 52.4468 36.9855C54.5493 37.1648 55.216 37.4631 57.9078 36.7477C58.811 36.5079 59.6858 36.1717 60.5682 35.8641C60.9198 35.7421 61.2569 35.5795 61.6091 35.46C61.9475 35.3448 62.5431 35.0135 62.6764 35.3423C62.7343 35.4849 62.5481 35.6281 62.4443 35.7421C62.2192 35.9886 61.9557 36.1978 61.6997 36.4127C61.2865 36.7607 60.8563 37.0889 60.4368 37.4301C60.4185 37.4444 55.1801 41.7221 55.1657 41.7345C54.6091 42.2258 54.1556 42.826 53.5845 43.2999C53.3524 43.4935 53.1713 43.6174 52.943 43.816C52.8329 43.9126 52.6241 44.039 52.5594 44.1317C52.3638 44.4138 52.165 44.6261 51.9826 44.7861Z" stroke="black" stroke-miterlimit="1.5" stroke-linecap="round" stroke-linejoin="round"/>
<path fill-rule="evenodd" clip-rule="evenodd" d="M77.2956 27.3613C77.2686 27.0151 77.6598 26.527 77.7189 26.4423C77.8428 26.2661 78.1516 25.8402 78.3705 25.3533C78.873 24.2369 79.2749 23.0787 79.6912 21.928C80.6749 19.212 81.0466 17.6012 81.8151 14.8067C81.9076 14.4711 82.0208 14.143 82.0799 13.8005C82.1284 13.5147 82.1655 12.9499 82.4554 12.9605C82.7328 12.9705 82.6365 13.5645 82.6598 13.8154C82.6868 14.1056 82.7611 14.6043 82.8001 14.8939C83.0938 17.0763 83.1825 19.0009 83.5095 21.179C83.6655 22.2194 83.8139 23.2618 83.9051 24.3097C83.946 24.7867 84.307 25.4797 83.9051 25.7449C83.5579 25.9734 83.6988 24.9386 83.5095 24.5706C83.0787 23.7337 82.1623 22.5382 81.4013 21.9617C80.2667 21.1024 78.7183 20.9031 77.5843 20.5065C77.1843 20.367 76.2503 20.1391 76.3943 19.7438C76.5428 19.3347 77.3371 19.5246 77.7598 19.5607C79.8623 19.74 80.529 20.0383 83.2208 19.3228C84.124 19.0831 84.9988 18.7469 85.8812 18.4393C86.2328 18.3173 86.5699 18.1547 86.9221 18.0352C87.2605 17.92 87.8561 17.5887 87.9894 17.9175C88.0473 18.0601 87.8611 18.2033 87.7573 18.3173C87.5322 18.5638 87.2686 18.773 87.0127 18.9879C86.5995 19.3359 86.1693 19.6641 85.7498 20.0053C85.7315 20.0196 80.4931 24.2972 80.4787 24.3097C79.922 24.801 79.4686 25.4012 78.8975 25.8751C78.6654 26.0687 78.4843 26.1926 78.256 26.3912C78.1459 26.4878 77.9371 26.6142 77.8723 26.7069C77.6767 26.989 77.478 27.2013 77.2956 27.3613Z" stroke="black" stroke-miterlimit="1.5" stroke-linecap="round" stroke-linejoin="round"/>
<path d="M23.0765 2.12129C23.7356 1.59453 21.5715 2.92079 20.935 3.47371C19.4847 4.73147 18.1236 6.09509 16.8482 7.52596C12.6135 12.2756 9.31099 16.288 6.89336 22.0046C2.84805 31.5699 0.735454 42.2846 2.8078 52.6556C3.35812 55.4083 4.42542 59.1374 5.63172 61.7364C6.66254 63.9574 7.4418 65.9798 8.6418 68.1629" stroke="black" stroke-width="3" stroke-miterlimit="1.5" stroke-linecap="round" stroke-linejoin="round"/>
<path d="M8.42236 67.7355C8.73746 68.3762 9.23935 68.8924 9.53873 69.2343C10.5004 70.3326 11.484 71.4136 12.5086 72.454C17.2319 77.2485 22.1306 81.3711 28.6194 83.6469C42.4799 88.5093 56.0542 87.3374 69.4694 81.6083C74.4732 79.4714 74.3524 79.4645 78.6179 76.2336C79.9015 75.261 81.6644 73.7597 82.8211 72.4777" stroke="black" stroke-width="3" stroke-miterlimit="1.5" stroke-linecap="round" stroke-linejoin="round"/>
<path d="M23.6813 2.26599C22.8001 8.72046 20.9919 8.36678 21.1108 14.9196C21.3555 28.4132 26.348 41.4193 35.4373 51.5387C37.6795 54.0344 46.1349 59.7734 48.9041 61.6382C55.6494 66.1805 63.674 69.0753 71.6055 70.8361C74.1427 71.3997 76.7131 71.8087 79.2848 72.1848C80.4371 72.3536 83.8647 72.7602 82.7761 72.348" stroke="black" stroke-width="3" stroke-miterlimit="1.5" stroke-linecap="round" stroke-linejoin="round"/>
</svg>
