<svg width="285" height="357" viewBox="0 0 285 357" fill="none" xmlns="http://www.w3.org/2000/svg">
<path d="M152.432 53.2984C152.432 53.2984 213.836 -4.35478 231.045 76.6214" stroke="black" stroke-width="5" stroke-miterlimit="1.5" stroke-linecap="round" stroke-linejoin="round"/>
<path d="M202.254 93.1826C202.254 93.1826 264.725 50.4903 280.737 144C293.27 217.145 196.456 227.83 168.734 188.627C168.734 188.627 115.424 248.347 80.6898 177.553C80.6898 177.553 28.1784 242.658 3.01312 150.229C3.01312 150.229 0.655601 75.1879 59.1416 106.342" stroke="black" stroke-width="5" stroke-miterlimit="1.5" stroke-linecap="round" stroke-linejoin="round"/>
<path d="M40.9423 99.4678C40.9423 99.4678 38.9917 29.8877 103.982 51.0585" stroke="black" stroke-width="5" stroke-miterlimit="1.5" stroke-linecap="round" stroke-linejoin="round"/>
<path d="M85.3392 44.8874C85.3392 44.8874 84.7633 2.78278 130.425 3.00084C176.086 3.2189 173.13 34.9039 174.865 35.0651" stroke="black" stroke-width="5" stroke-miterlimit="1.5" stroke-linecap="round" stroke-linejoin="round"/>
<path d="M109.551 226.987C109.551 226.987 161.044 324.289 219.049 298.027C219.049 298.027 250.992 271.443 214.935 249.407C178.879 227.371 217.137 273.937 217.137 273.937" stroke="black" stroke-width="5" stroke-miterlimit="1.5" stroke-linecap="round" stroke-linejoin="round"/>
<path d="M76.601 198.479C76.601 198.479 36.9875 274.162 68.8579 294.52C68.8579 294.52 96.2747 307.268 88.9682 264.957C88.9682 264.957 74.2524 255.414 73.6053 279.33" stroke="black" stroke-width="5" stroke-miterlimit="1.5" stroke-linecap="round" stroke-linejoin="round"/>
<path d="M96.3516 220.328C96.3516 220.328 91.0592 354.001 151.707 354.391C151.707 354.391 176.765 337.347 151.962 314.329C151.962 314.329 136.598 303.635 144.491 333.441" stroke="black" stroke-width="5" stroke-miterlimit="1.5" stroke-linecap="round" stroke-linejoin="round"/>
</svg>
