<svg width="51" height="64" viewBox="0 0 51 64" fill="none" xmlns="http://www.w3.org/2000/svg">
<path d="M27.1459 9.80063C27.1459 9.80063 37.8897 -0.286844 40.9008 13.8814" stroke="black" stroke-width="2" stroke-miterlimit="1.5" stroke-linecap="round" stroke-linejoin="round"/>
<path d="M35.8631 16.7792C35.8631 16.7792 46.7937 9.30937 49.5952 25.6706C51.788 38.4687 34.8487 40.3382 29.9981 33.4789C29.9981 33.4789 20.6706 43.928 14.5933 31.5413C14.5933 31.5413 5.40542 42.9327 1.0023 26.7605C1.0023 26.7605 0.589804 13.6307 10.823 19.0817" stroke="black" stroke-width="2" stroke-miterlimit="1.5" stroke-linecap="round" stroke-linejoin="round"/>
<path d="M7.63867 17.8789C7.63867 17.8789 7.29738 5.70457 18.6686 9.40879" stroke="black" stroke-width="2" stroke-miterlimit="1.5" stroke-linecap="round" stroke-linejoin="round"/>
<path d="M15.4068 8.32896C15.4068 8.32896 15.306 0.961994 23.2953 1.00015C31.2846 1.0383 30.7673 6.58217 31.071 6.61037" stroke="black" stroke-width="2" stroke-miterlimit="1.5" stroke-linecap="round" stroke-linejoin="round"/>
<path d="M19.6432 40.1899C19.6432 40.1899 28.6529 57.2148 38.8019 52.6198C38.8019 52.6198 44.391 47.9684 38.0822 44.1129C31.7734 40.2573 38.4674 48.4049 38.4674 48.4049" stroke="black" stroke-width="2" stroke-miterlimit="1.5" stroke-linecap="round" stroke-linejoin="round"/>
<path d="M13.8777 35.2025C13.8777 35.2025 6.94664 48.4445 12.5229 52.0066C12.5229 52.0066 17.32 54.237 16.0416 46.834C16.0416 46.834 13.4668 45.1642 13.3536 49.3488" stroke="black" stroke-width="2" stroke-miterlimit="1.5" stroke-linecap="round" stroke-linejoin="round"/>
<path d="M17.3335 39.0255C17.3335 39.0255 16.4074 62.4139 27.019 62.4823C27.019 62.4823 31.4033 59.5001 27.0634 55.4727C27.0634 55.4727 24.3752 53.6016 25.7564 58.8166" stroke="black" stroke-width="2" stroke-miterlimit="1.5" stroke-linecap="round" stroke-linejoin="round"/>
</svg>
